<?xml version="1.0" encoding="UTF-8" standalone="no"?>
<svg
   version="1.2"
   width="412.68381mm"
   height="398.01273mm"
   viewBox="0 0 41268.381 39801.273"
   preserveAspectRatio="xMidYMid"
   fill-rule="evenodd"
   stroke-width="28.222"
   stroke-linejoin="round"
   xml:space="preserve"
   id="svg24"
   sodipodi:docname="Flower6b.svg"
   inkscape:version="1.3 (0e150ed6c4, 2023-07-21)"
   xmlns:inkscape="http://www.inkscape.org/namespaces/inkscape"
   xmlns:sodipodi="http://sodipodi.sourceforge.net/DTD/sodipodi-0.dtd"
   xmlns="http://www.w3.org/2000/svg"
   xmlns:svg="http://www.w3.org/2000/svg"
   xmlns:ooo="http://xml.openoffice.org/svg/export"><sodipodi:namedview
   id="namedview24"
   pagecolor="#ffffff"
   bordercolor="#000000"
   borderopacity="0.25"
   inkscape:showpageshadow="2"
   inkscape:pageopacity="0.0"
   inkscape:pagecheckerboard="0"
   inkscape:deskcolor="#d1d1d1"
   inkscape:document-units="mm"
   showgrid="false"
   inkscape:zoom="0.49709596"
   inkscape:cx="779.52756"
   inkscape:cy="751.36398"
   inkscape:window-width="1920"
   inkscape:window-height="1011"
   inkscape:window-x="0"
   inkscape:window-y="0"
   inkscape:window-maximized="1"
   inkscape:current-layer="layer1" />&#10; <defs
   class="ClipPathGroup"
   id="defs2">&#10;  <clipPath
   id="presentation_clip_path"
   clipPathUnits="userSpaceOnUse">&#10;   <rect
   x="0"
   y="0"
   width="41250"
   height="41250"
   id="rect1" />&#10;  </clipPath>&#10;  <clipPath
   id="presentation_clip_path_shrink"
   clipPathUnits="userSpaceOnUse">&#10;   <rect
   x="41"
   y="41"
   width="41168"
   height="41168"
   id="rect2" />&#10;  </clipPath>&#10; </defs>&#10; <defs
   class="TextShapeIndex"
   id="defs3">&#10;  <g
   ooo:slide="id1"
   ooo:id-list="id3 id4 id5"
   id="g2" />&#10; </defs>&#10; <defs
   class="EmbeddedBulletChars"
   id="defs12">&#10;  <g
   id="bullet-char-template-57356"
   transform="matrix(4.8828125e-4,0,0,-4.8828125e-4,0,0)">&#10;   <path
   d="M 580,1141 1163,571 580,0 -4,571 Z"
   id="path3" />&#10;  </g>&#10;  <g
   id="bullet-char-template-57354"
   transform="matrix(4.8828125e-4,0,0,-4.8828125e-4,0,0)">&#10;   <path
   d="M 8,1128 H 1137 V 0 H 8 Z"
   id="path4" />&#10;  </g>&#10;  <g
   id="bullet-char-template-10146"
   transform="matrix(4.8828125e-4,0,0,-4.8828125e-4,0,0)">&#10;   <path
   d="M 174,0 602,739 174,1481 1456,739 Z M 1358,739 309,1346 659,739 Z"
   id="path5" />&#10;  </g>&#10;  <g
   id="bullet-char-template-10132"
   transform="matrix(4.8828125e-4,0,0,-4.8828125e-4,0,0)">&#10;   <path
   d="M 2015,739 1276,0 H 717 l 543,543 H 174 v 393 h 1086 l -543,545 h 557 z"
   id="path6" />&#10;  </g>&#10;  <g
   id="bullet-char-template-10007"
   transform="matrix(4.8828125e-4,0,0,-4.8828125e-4,0,0)">&#10;   <path
   d="m 0,-2 c -7,16 -16,29 -25,39 l 381,530 c -94,256 -141,385 -141,387 0,25 13,38 40,38 9,0 21,-2 34,-5 21,4 42,12 65,25 l 27,-13 111,-251 280,301 64,-25 24,25 c 21,-10 41,-24 62,-43 C 886,937 835,863 770,784 769,783 710,716 594,584 L 774,223 c 0,-27 -21,-55 -63,-84 l 16,-20 C 717,90 699,76 672,76 641,76 570,178 457,381 L 164,-76 c -22,-34 -53,-51 -92,-51 -42,0 -63,17 -64,51 -7,9 -10,24 -10,44 0,9 1,19 2,30 z"
   id="path7" />&#10;  </g>&#10;  <g
   id="bullet-char-template-10004"
   transform="matrix(4.8828125e-4,0,0,-4.8828125e-4,0,0)">&#10;   <path
   d="M 285,-33 C 182,-33 111,30 74,156 52,228 41,333 41,471 c 0,78 14,145 41,201 34,71 87,106 158,106 53,0 88,-31 106,-94 l 23,-176 c 8,-64 28,-97 59,-98 l 735,706 c 11,11 33,17 66,17 42,0 63,-15 63,-46 V 965 c 0,-36 -10,-64 -30,-84 L 442,47 C 390,-6 338,-33 285,-33 Z"
   id="path8" />&#10;  </g>&#10;  <g
   id="bullet-char-template-9679"
   transform="matrix(4.8828125e-4,0,0,-4.8828125e-4,0,0)">&#10;   <path
   d="M 813,0 C 632,0 489,54 383,161 276,268 223,411 223,592 c 0,181 53,324 160,431 106,107 249,161 430,161 179,0 323,-54 432,-161 108,-107 162,-251 162,-431 0,-180 -54,-324 -162,-431 C 1136,54 992,0 813,0 Z"
   id="path9" />&#10;  </g>&#10;  <g
   id="bullet-char-template-8226"
   transform="matrix(4.8828125e-4,0,0,-4.8828125e-4,0,0)">&#10;   <path
   d="m 346,457 c -73,0 -137,26 -191,78 -54,51 -81,114 -81,188 0,73 27,136 81,188 54,52 118,78 191,78 73,0 134,-26 185,-79 51,-51 77,-114 77,-187 0,-75 -25,-137 -76,-188 -50,-52 -112,-78 -186,-78 z"
   id="path10" />&#10;  </g>&#10;  <g
   id="bullet-char-template-8211"
   transform="matrix(4.8828125e-4,0,0,-4.8828125e-4,0,0)">&#10;   <path
   d="M -4,459 H 1135 V 606 H -4 Z"
   id="path11" />&#10;  </g>&#10;  <g
   id="bullet-char-template-61548"
   transform="matrix(4.8828125e-4,0,0,-4.8828125e-4,0,0)">&#10;   <path
   d="m 173,740 c 0,163 58,303 173,419 116,115 255,173 419,173 163,0 302,-58 418,-173 116,-116 174,-256 174,-419 0,-163 -58,-303 -174,-418 C 1067,206 928,148 765,148 601,148 462,206 346,322 231,437 173,577 173,740 Z"
   id="path12" />&#10;  </g>&#10; </defs>&#10; &#10; &#10;<g
   inkscape:groupmode="layer"
   id="layer1"
   inkscape:label="Layer 1"
   transform="translate(-19.619552,-734)"><path
     id="path13"
     d="m 35175.009,4203.981 -1204.991,73.0188 -956.014,102.9911 -1073.009,381.9922 -837.003,353.0017 -412.016,353.0017 -587.975,162.0056 -338.015,279.001 543.997,750.0317 985.005,807.961 779.022,279.0011 1498.978,500.0211 1896.008,396.9783 617.999,206.034 -293.987,1704.9607 -133.015,2837.036 190.996,-176.992 662.026,-646.007 851.99,-912.037 587.974,-851.99 427.002,-999.9903 395.997,-1116.986 147.019,-1396.0388 162.006,-1896.9901 88.005,-601.9787 -588.026,-162.0056 -954.981,-73.0188 -822.998,-146.9678 L 36175,4248.0093 Z m 1557.993,15728.032 -867.027,131.981 -528.96,190.996 146.968,397.03 455.011,367.988 205.982,131.982 867.027,660.993 -131.982,324.011 -1529.002,1910.995 -1132.024,1748.988 71.004,37.001 -541.001,771.012 -322.978,925.99 -338.997,926.042 -940.046,499.969 -1087.995,397.03 -1102,381.992 -1176.001,529.012 -2219.968,1940.967 499.97,1029.032 558.002,1219.978 543.998,779.022 676.031,690.965 749.98,469.997 1073.009,676.032 1293.978,234.972 1337.024,293.987 1601.97,-13.952 500.021,-339.049 1073.009,-190.996 573.97,30.024 367.006,513.973 59.015,206.034 235.024,-353.001 28.991,-1308.034 220.968,-1204.991 44.028,-1264.006 -176.009,-1469.987 -29.973,-852.972 -382.044,-1205.042 -425.968,-1131.972 -15.038,-397.03 -117.978,-499.97 -293.987,-412.016 -279.001,-338.016 -28.99,-234.972 -295.021,-332.021 88.987,68.006 323.029,-117.977 780.004,-264.015 542.964,-29.973 824.033,-529.011 1060.969,-955.032 629.005,-778.971 -74.001,-250.011 529.994,-866.975 426.02,-647.041 -720.007,-455.992 -791.011,-558.002 -208.98,-441.007 -514.025,-353.002 -1131.973,-470.979 z m -32744.9768,5014.009 -738.0428,377.961 -754.9927,717.992 -1133.9876,1153.005 -586.01067,1398.002 -321.99584,2078.995 207.99763,1645.016 227.01456,944.025 -623.9929,793.956 -56.01725,284.014 339.97924,37 1323.01993,19.017 717.9924,19.017 756.0261,339.979 h 660.9933 l 566.9938,207.998 547.9768,-37 643.0098,-94.982 831.9906,18.966 1096.0054,-377.962 964.0238,-358.996 584.9772,-473.046 623.9929,-225.981 850.0251,-623.993 264.997,-358.996 -435.012,-1418.001 -660.9932,-1227.987 -1474.0185,-567.046 -1361.0021,-566.994 -982.9891,-1019.989 -1359.9686,-1890.014 z m 18692.9668,6495.003 -1219.977,955.963 -882.013,381.992 -734.994,15.038 14.986,866.975 395.996,2087.005 543.998,1293.977 309.025,456.045 367.006,190.996 338.998,513.974 528.959,206.034 470.049,484.983 940.976,678.977 1058.024,835.039 131.981,14.986 162.006,-588.026 337.964,-1087.996 191.047,-661.975 308.974,-572.988 131.981,-794.008 118.029,-896.018 162.006,-749.98 28.99,-970.018 -176.009,-603.012 88.005,-513.974 -88.005,-632.003 -706.004,-74.001 -954.98,-250.01 -1338.006,-514.026 z"
     style="display:inline;fill:#008000" /><path
     fill="rgb(255,0,0)"
     stroke="none"
     d="m 6409,4484 265,970 15,1147 -544,1867 -1632,2278 -867,2146 382,2338 294,676 -735,911 -470,705 1102,1411 970,1396 -720,691 -1632,2250 -191,1102 529,235 971,353 852,1367 897,1132 1132,1146 1190,515 1749,647 809,1778 470,2234 162,206 2014,-1029 3248,-838 2293,471 1131,205 1735,-558 882,-720 852,161 1632,500 1279,59 1146,-1103 1411,-1043 2029,-720 1984,-824 1206,-2837 1631,-2116 1338,-1706 -1338,-1131 -823,-809 -279,-1161 29,-279 779,-529 765,-632 -368,-1485 -338,-2822 162,-2278 353,-1941 -383,-205 -2425,-559 -2705,-1087 -1043,-1191 -706,-529 -1102,-323 -1529,-59 -470,-397 -1602,-2367 -1235,-1014 -323,-191 -1191,647 -2601,999 -3469,926 -1132,456 -779,485 h -912 -382 l -955,529 -1044,191 -764,-205 -853,-309 -705,-265 -1397,-59 z"
     id="path18"
     style="display:inline;fill:#ff0000" /><path
     fill="#000000"
     stroke="none"
     d="m 22706,38955 c -595,-384 -450,-471 -529,-519 -105,-61 -298,-13 -450,-135 -97,-77 -213,-262 -330,-426 -188,-259 -328,-230 -500,-429 -156,-179 -325,-518 -435,-899 -189,-659 -542,-1273 -659,-1939 -107,-612 -143,-1284 -145,-1675 -854,-254 -1513,-413 -2093,-490 -988,-132 -1858,-10 -2800,254 -1071,302 -2267,802 -3001,1276 -166,105 -361,177 -440,190 -131,24 -213,-16 -271,-111 -13,-21 -31,-95 -40,-130 -36,-129 -88,-338 -126,-547 -50,-186 -89,-358 -112,-461 -48,37 -114,90 -187,151 -37,37 -78,74 -121,111 -235,199 -601,410 -798,410 -13,0 -62,24 -82,35 -121,61 -181,108 -322,217 -240,174 -401,280 -565,359 -164,80 -326,127 -568,180 -61,19 -124,37 -186,56 -165,53 -335,119 -425,175 v 0 c -457,275 -1279,529 -1651,346 -153,-63 -649,95 -808,114 -378,40 -739,5 -961,-116 -100,-45 -144,-77 -241,-93 -218,-40 -518,40 -715,-5 -99,-24 -177,-72 -316,-170 -90,-58 -179,-113 -268,-172 -405,8 -811,19 -1216,27 -69,8 -677,-3 -698,-3 -911,-18 -692,-222 -210,-958 57,-82 166,-145 172,-246 32,-508 -58,-1100 -129,-1603 -15,-61 -28,-132 -39,-212 -203,-1095 14,-3050 564,-3984 262,-445 721,-828 1053,-1225 82,-98 151,-188 195,-258 0,0 0,0 0,0 63,-118 153,-224 253,-325 288,-288 799,-638 1283,-800 -93,-67 -149,-95 -286,-121 -100,-19 -228,-35 -396,-44 -373,-21 -691,35 -623,-394 109,-690 436,-1542 823,-2121 374,-560 1252,-1177 1522,-1777 87,-194 -53,-423 -176,-631 -397,-674 -918,-1227 -1394,-1835 -141,-179 -251,-355 -251,-480 0,-55 36,-134 172,-321 310,-426 649,-833 975,-1248 -46,-100 -92,-200 -138,-300 h -1 c -125,-252 -257,-710 -321,-967 v 0 c -151,-577 -155,-750 -134,-1396 27,-616 100,-1073 318,-1604 196,-476 594,-1173 1170,-2029 759,-1116 1191,-1870 1376,-2554 184,-679 125,-1297 -95,-2143 -137,-554 -308,-752 234,-765 382,-10 1102,33 1382,92 991,209 1789,939 2881,619 215,-63 438,-175 742,-360 21,-12 41,-25 63,-38 0,0 0,0 0,0 553,-333 555,-335 846,-247 282,42 655,108 925,21 73,-23 141,-66 252,-141 295,-241 597,-423 1065,-601 465,-177 1093,-349 2044,-574 778,-185 1336,-330 1826,-481 492,-151 918,-309 1430,-520 0,0 0,0 1,0 539,-211 972,-396 1325,-563 353,-167 627,-318 848,-461 l 354,-207 c 100,50 201,100 302,151 960,498 1630,1366 2290,2400 l 1,1 c 205,279 406,569 564,796 156,226 296,409 488,601 297,18 596,35 895,52 704,53 1143,107 1487,218 334,109 606,289 905,570 74,74 148,149 222,223 236,-142 463,-266 741,-323 251,-50 516,-296 738,-457 135,-94 318,-198 371,-204 156,-20 285,-72 555,-180 90,-35 178,-71 268,-106 227,-101 510,-191 714,-191 v 1 c 69,0 249,-14 307,-44 121,-64 465,-83 659,-95 820,-50 2264,-42 2394,45 v 0 c 21,14 50,26 77,35 312,110 759,103 1077,138 34,8 68,16 105,23 178,39 612,100 762,109 339,41 543,75 659,129 154,69 180,161 143,307 -26,97 -48,392 -77,754 v 7 c -61,371 -84,748 -108,1125 -24,355 -45,712 -101,1065 -53,611 -121,1047 -227,1421 -109,374 -252,685 -450,1046 v 0 c -24,54 -48,109 -71,164 -101,275 -112,376 -321,638 v 0 c -373,472 -1103,1292 -1561,1769 -47,56 -447,442 -452,455 v 445 c 0,704 116,1500 286,2200 158,556 238,848 272,1027 56,292 0,432 -219,625 -117,104 -289,238 -530,411 v 0 1 c -153,112 -722,528 -748,567 -21,31 -37,254 -37,349 0,262 42,401 177,652 265,508 275,534 638,364 426,-199 1050,-287 1431,-134 331,133 746,144 1064,258 304,109 510,322 838,485 191,96 302,158 365,216 80,71 98,133 98,221 0,204 1223,1034 1236,1038 100,35 399,246 513,322 -222,251 -402,548 -595,810 -3,1 -3,3 -3,4 v 0 c -79,153 -217,418 -299,517 -58,69 -87,113 -92,144 -22,82 182,114 -27,409 -230,326 -542,605 -812,900 -439,473 -640,648 -1180,1025 -376,260 -614,289 -1019,345 -61,8 -119,18 -172,29 -13,5 -31,13 -50,21 -220,85 -614,177 -863,241 122,135 286,341 223,487 -19,60 166,261 246,341 174,174 275,264 338,360 302,460 6,378 56,738 8,58 45,145 122,296 156,299 407,913 373,1109 -6,53 76,267 127,373 137,286 402,780 256,976 -15,21 -23,21 -23,90 0,93 26,209 42,355 29,219 74,582 74,857 l 106,992 c 79,410 -85,1632 -191,1892 -16,45 -26,103 -31,158 -27,201 -40,514 -40,818 -11,373 -66,1225 -307,1336 -40,21 -79,11 -116,-29 -204,-217 -262,-736 -572,-841 -140,-45 -357,-8 -751,82 -24,5 -130,31 -262,60 -294,67 -601,326 -823,363 -680,114 -2178,95 -2781,-161 -222,-77 -444,-151 -500,-133 -92,21 -206,3 -317,-18 -937,-188 -1646,-704 -2445,-1162 -45,45 -106,19 -172,-42 -138,-135 -362,-408 -534,-638 -149,-198 -381,-381 -490,-545 -161,-241 -397,-709 -561,-1127 -24,-63 -50,-127 -74,-193 -66,-146 -135,-267 -169,-304 -35,-32 -61,-64 -90,-106 -77,-114 -167,-302 -246,-476 -82,-215 -146,-331 -190,-373 -29,-27 -119,-11 -124,71 -7,146 96,500 96,627 0,183 -121,233 -116,331 3,45 28,111 77,235 48,119 85,246 111,371 72,320 66,635 -24,717 -58,55 -32,354 -28,500 26,955 -354,809 -291,1444 v 0 c 61,485 -110,1008 -379,1450 -76,127 -126,228 -164,339 -38,108 -63,230 -89,397 0,121 -14,238 -38,330 -51,196 -96,159 -149,278 -100,223 -156,619 -278,873 -111,231 -235,194 -415,69 -551,-383 -1028,-841 -1569,-1235 -121,-88 -242,-164 -368,-246 z M 36264,7041 c -98,-226 -77,-877 98,-1214 -138,615 -109,968 -98,1214 z m -48,719 c -238,-359 -286,-1453 35,-2045 -202,1050 -93,1635 -35,2045 z m 74,2188 c 310,142 622,210 1019,192 -109,149 -963,27 -1019,-192 z m 16,-177 c 333,187 1016,220 1342,222 -299,149 -1218,51 -1342,-222 z m 2207,-1800 c -582,207 -1297,147 -1879,39 0,-8 1035,47 1879,-39 z M 34303,5912 c -113,759 -174,1555 133,2256 320,66 642,130 965,203 90,-51 215,-126 310,-172 21,-10 42,-22 63,-34 40,-22 80,-45 119,-68 40,-22 80,-45 117,-69 140,-84 283,-169 415,-271 212,-161 405,-310 590,-456 521,-442 1024,-980 1508,-1626 -201,541 -1153,1524 -1410,1742 -116,100 -235,196 -354,287 -82,62 -167,122 -249,180 -111,78 -225,152 -339,223 90,-40 177,-82 257,-134 182,-119 346,-224 495,-322 420,-313 791,-696 1116,-1132 -214,509 -881,1083 -1056,1214 -95,71 -195,139 -296,203 -69,44 -140,86 -212,126 -259,146 -537,268 -836,364 53,13 104,25 154,38 320,73 487,126 540,361 45,205 -22,551 -170,1209 -180,803 -259,1703 -259,2494 0,34 0,108 -3,175 -2,149 0,207 6,282 55,-57 235,-244 436,-447 v 0 c 389,-391 754,-818 1114,-1239 542,-636 550,-1278 902,-1890 278,-480 326,-1188 344,-1881 19,-322 80,-932 135,-1125 16,-60 45,-302 56,-399 55,-469 129,-1142 124,-1148 -3,-6 -8,-12 -13,-18 -5,-13 -11,14 -50,5 -516,-122 -1659,-272 -1998,-302 -119,-13 -238,-27 -360,-40 -177,-25 -336,-96 -521,-119 -492,-62 -1196,-77 -1529,-26 -201,25 -500,80 -667,80 -577,24 -1135,132 -1603,336 v 1 c -167,74 -421,172 -551,191 -137,20 -764,429 -807,509 -47,119 -254,148 -397,177 -142,29 -380,113 -534,194 -151,80 -135,60 -32,186 191,235 611,635 910,860 98,69 204,137 315,204 1000,593 2059,830 3138,1051 -278,-349 -368,-1414 -16,-2233 z m 241,-122 c -108,717 -108,1443 53,2150 -400,-462 -270,-1850 -53,-2150 z m 934,18548 c 513,587 1355,1106 2410,1400 -857,52 -1989,-785 -2495,-1285 -129,177 -256,355 -383,533 -175,248 -350,500 -522,755 321,159 956,472 1178,658 95,79 190,161 286,240 222,-55 447,-111 674,-158 122,-27 627,-126 723,-126 796,-79 1481,-929 1989,-1427 233,-227 474,-449 662,-709 74,-103 76,-78 63,-97 -98,-129 -108,-348 53,-428 172,-87 646,-1072 751,-1220 -42,-19 -103,-45 -166,-71 -109,-47 -442,-281 -495,-329 -108,-99 -265,-204 -360,-284 -18,-14 -140,-48 -140,-197 0,-17 -130,-97 -167,-116 -174,-76 -256,-165 -256,-333 0,-115 -154,-188 -305,-280 -325,-162 -1169,-593 -1444,-624 l -617,-107 c -227,-51 -386,-47 -627,0 -100,26 -201,51 -301,76 -223,64 -403,124 -403,142 0,6 6,-2 16,11 19,24 45,54 80,90 188,192 571,517 926,762 v 1 c 309,214 489,349 590,460 87,97 95,176 90,264 251,-294 365,-440 669,-673 -24,39 -275,489 -302,527 -288,429 -545,552 -849,906 l -701,830 c 370,-219 931,-312 1098,-364 294,-92 579,-155 863,-196 359,-75 1719,-380 2463,-253 -839,109 -1654,240 -2434,402 -172,36 -344,73 -514,113 -116,26 -230,54 -344,82 -433,107 -851,226 -1254,357 l -31,38 c -19,23 -40,47 -59,73 151,-103 347,-123 553,-210 178,-74 347,-121 511,-148 288,-76 656,-218 1691,-235 -535,75 -1167,253 -1625,375 l 1257,526 c -471,26 -1233,-361 -1471,-467 -40,10 -80,22 -117,33 -68,20 -135,41 -201,62 -259,82 -508,173 -746,272 -47,66 -95,131 -148,188 -40,54 -79,107 -119,161 z m 1802,7842 c -551,-90 -1900,-109 -2426,-22 301,-288 2201,-211 2426,22 z m -3704,-4461 c 434,-82 944,-114 1336,-8 -458,8 -918,45 -1371,119 -45,153 -90,600 -455,907 -256,215 -664,379 -1397,620 v -3 c -177,61 -373,127 -579,193 667,257 1249,651 1852,1061 87,-29 185,-56 294,-82 26,-8 50,-13 74,-21 45,-13 92,-27 137,-37 45,-13 93,-27 138,-37 164,-45 331,-74 492,-125 677,-211 1566,-296 2500,16 -725,-132 -1471,-79 -2185,69 -95,21 -191,42 -286,64 -333,79 -669,169 -997,264 209,143 656,482 1082,1167 -630,-640 -1003,-894 -1543,-1283 -553,-397 -1148,-733 -1783,-982 -796,259 -1696,569 -2257,942 -296,193 -574,442 -966,836 -2,0 -2,3 -5,3 -217,193 -423,386 -582,534 -212,199 -230,228 -376,315 45,119 90,241 135,360 93,206 230,444 334,566 108,146 238,405 301,577 14,47 56,161 72,209 209,561 360,714 616,1005 164,185 291,347 429,548 172,235 299,256 495,452 87,66 182,133 285,201 439,291 974,572 1418,757 373,153 754,116 1191,196 429,79 688,246 1146,278 658,42 1719,100 1696,63 -125,-206 -125,-206 87,-294 323,-134 1571,-349 1661,-349 530,0 696,365 926,741 35,-116 51,-161 72,-291 34,-206 61,-516 61,-796 v -6 c 18,-280 58,-936 82,-1021 55,-196 76,-476 76,-664 0,-392 151,-447 98,-839 -50,-341 -124,-793 -124,-1092 -77,-1540 -66,-1633 -336,-2186 -29,-63 -61,-137 -93,-214 -113,-286 -95,-543 -209,-834 -66,-164 -140,-325 -195,-431 -45,-79 -88,-172 -117,-267 -164,-529 236,-278 -201,-860 -79,-106 -167,-212 -251,-309 -109,-122 -270,-284 -225,-424 10,-37 -77,-159 -114,-204 -423,-526 -1034,-872 -1640,-1155 -122,154 -204,291 -299,479 -196,383 -397,886 -500,1272 z m 611,4270 c -725,-624 -1463,-1273 -2471,-1601 505,19 1870,696 2471,1601 z m -3437,-1876 c -249,381 -450,955 -593,1373 -95,281 -177,561 -246,847 -182,767 -270,1558 -254,2376 -251,-132 29,-2085 106,-2410 42,-172 82,-347 140,-516 45,-138 82,-252 112,-347 84,-278 425,-1233 735,-1323 z m 1913,961 c -24,172 -29,341 -19,510 3,35 0,72 0,106 0,66 -2,132 -2,199 0,66 0,132 2,198 16,1421 236,2844 741,4178 -674,-228 -1198,-4435 -722,-5191 z m 1693,1330 c 212,1125 770,2421 1191,3403 -471,-185 -1397,-2805 -1191,-3403 z m 1569,1344 804,1427 c -277,-241 -793,-979 -804,-1427 z m -11871,4189 c -19,45 -17,90 -1,137 3,8 1,19 2,29 1,19 2,37 4,56 2,18 4,37 6,56 8,68 9,142 37,211 34,82 64,196 92,331 104,309 261,661 459,1061 -160,-42 -487,-828 -555,-1029 -23,-72 -44,-143 -63,-209 -12,-48 -23,-93 -33,-138 -33,-151 -43,-455 52,-505 z m 829,-662 c -390,-600 -879,-1291 -1404,-1730 331,119 1156,831 1404,1730 z m -1728,-1026 c -22,71 -24,143 -13,211 3,16 -1,29 -1,45 -1,27 -2,56 -3,82 -1,29 -1,56 -2,85 -1,98 -9,196 3,294 15,121 22,267 24,428 31,384 88,768 162,1151 -201,-203 -246,-934 -263,-1143 -7,-84 -13,-172 -18,-259 -3,-58 -5,-116 -7,-175 -5,-180 8,-658 118,-719 z m 112,-1582 c 61,7 139,18 229,31 16,3 31,6 46,11 30,5 59,13 89,18 28,8 57,16 86,24 101,29 196,80 299,106 153,37 290,111 415,214 222,141 936,778 877,1006 -298,-365 -616,-662 -958,-876 -75,-48 -152,-90 -230,-130 -54,-26 -108,-53 -163,-74 -224,-95 -459,-156 -705,-180 z m -556,164 c -44,74 -68,150 -77,227 -2,16 -10,29 -15,45 -9,29 -18,61 -26,90 -9,29 -17,58 -24,87 -28,106 -58,209 -74,315 -20,133 -46,286 -75,458 -52,410 -69,820 -76,1230 -158,-140 -110,-973 -74,-1249 11,-92 25,-187 41,-280 11,-64 23,-127 36,-191 49,-240 227,-706 364,-732 z m 1442,-1397 c 220,108 838,545 758,727 -258,-254 -534,-447 -825,-590 -289,-143 -599,-235 -916,-288 274,-164 755,53 983,151 z m -1770,-72 c -66,109 -111,217 -142,326 -7,21 -19,42 -28,63 -17,42 -34,85 -51,127 -17,42 -33,82 -49,124 -57,146 -112,289 -160,434 -60,188 -126,397 -193,622 -155,545 -263,1080 -347,1601 -226,-132 119,-1355 200,-1643 35,-125 72,-249 112,-373 27,-85 56,-172 85,-257 89,-259 330,-929 573,-1024 z m 286,-1481 c 2,148 26,296 63,444 7,29 9,61 14,90 9,58 18,116 27,175 10,58 19,116 29,172 34,206 60,412 110,613 67,276 127,572 182,887 172,788 405,1592 580,2352 -225,-117 -651,-1961 -729,-2320 -39,-178 -76,-352 -112,-530 -24,-121 -48,-240 -71,-362 -56,-294 -263,-1048 -93,-1521 z m -295,203 c -4,122 11,244 41,365 6,24 6,51 9,74 6,48 13,96 19,143 7,48 14,96 21,143 25,167 42,336 83,500 56,220 105,461 151,717 150,638 342,1265 571,1881 -242,-127 -645,-1529 -719,-1846 -34,-143 -65,-286 -95,-432 -20,-97 -39,-195 -58,-296 -50,-272 -163,-915 -23,-1249 z M 8749,30346 c 156,521 292,1035 388,1574 99,559 125,1117 -7,1400 -38,-794 -121,-1543 -292,-2209 -63,-246 -139,-485 -229,-707 -150,-370 -339,-704 -577,-989 393,79 646,693 717,931 z m -2029,1426 c 5,302 19,601 39,902 6,80 5,252 3,453 -3,386 -21,881 -97,1058 -37,-328 -53,-1230 -58,-1508 -5,-283 -30,-564 -35,-847 -4,-235 -61,-1000 -84,-1336 146,238 226,897 232,1278 z m -2413,5 c -479,-113 -953,-108 -1414,-34 -143,24 -287,53 -430,85 -274,61 -548,129 -819,185 7,-19 24,-35 48,-50 86,-64 269,-117 464,-183 299,-103 625,-167 753,-169 228,0 1326,-201 1398,166 z m 1747,-1844 c -120,-31 -222,-58 -312,-82 -35,-10 -71,-16 -106,-24 -68,-13 -136,-23 -204,-34 -146,-24 -292,-37 -439,-48 -213,-13 -427,-13 -642,-5 -567,3 -1153,95 -1749,212 261,-257 1433,-349 1743,-363 222,-8 443,-8 663,6 254,16 967,145 1046,338 z m -15,-1952 c -99,-24 -181,-45 -251,-64 -18,-2 -35,-8 -53,-10 -33,-6 -67,-14 -101,-19 -33,-5 -67,-10 -101,-13 -120,-19 -244,-11 -366,-32 -169,-29 -354,-24 -550,11 -503,34 -1026,137 -1560,267 85,-156 1255,-400 1549,-421 194,-13 385,-18 572,-10 242,10 709,90 861,291 z m 1033,865 c -165,259 -325,511 -484,754 -96,145 -206,280 -313,418 -129,164 -613,817 -954,979 508,-595 781,-976 1144,-1487 167,-236 327,-479 475,-741 z m 110,174 c 7,-34 56,-44 106,-21 35,24 44,72 21,106 -291,439 -1826,2614 -2453,2503 881,-632 1738,-1701 2326,-2588 z m -5696,4832 c 58,-48 133,-96 219,-146 16,-8 29,-21 44,-32 28,-18 55,-39 82,-58 27,-21 53,-40 79,-58 92,-71 182,-135 253,-198 120,-112 207,-180 251,-199 295,-212 585,-442 868,-706 12,-11 26,-19 41,-19 24,-5 49,3 66,24 19,19 25,48 18,71 -4,14 -11,24 -22,35 -287,270 -582,505 -883,719 -125,90 -929,712 -1016,567 z m 23417,6066 c 55,-222 120,-468 245,-656 11,-18 45,-119 53,-143 121,-378 50,-653 291,-1021 78,-119 151,-259 206,-389 150,-344 230,-717 230,-1050 -13,-151 -13,-262 8,-360 51,-235 183,-278 230,-545 19,-109 25,-251 25,-471 h 1 c 0,-143 11,-548 56,-683 22,-66 28,-63 29,-164 0,-203 -60,-516 -133,-738 -42,-98 -64,-172 -67,-238 -9,-151 75,-188 75,-341 0,-72 -13,-164 -38,-304 -22,-104 -44,-207 -66,-310 h -335 c -925,0 -1512,-445 -2317,-688 -132,-40 -245,-53 -396,-53 -446,0 -395,8 -599,209 -103,101 -194,156 -301,230 -551,395 -1001,813 -1713,813 v -3 c -142,0 -235,-3 -354,-13 -7,132 5,304 19,476 60,725 231,1889 372,2103 27,35 51,66 73,109 58,111 107,272 127,431 0,3 1,5 2,13 v 0 c 42,207 157,514 279,765 108,225 207,402 235,402 80,-18 168,21 269,122 52,50 230,267 313,418 73,135 121,209 167,243 112,85 313,64 434,133 121,68 161,227 292,330 94,74 229,167 398,270 554,355 1242,1119 1809,1381 45,-90 74,-251 81,-278 z M 5465,34735 c 170,-37 356,-68 487,-23 34,10 37,29 125,42 358,63 958,-156 1395,-381 213,-109 418,-188 651,-246 206,-50 334,-90 469,-159 136,-69 284,-172 529,-354 179,-135 453,-278 633,-331 279,-85 871,-545 957,-680 25,-48 -19,-307 -36,-394 -111,-567 -415,-1501 -677,-1993 -71,-137 -102,-248 -230,-344 -144,-108 -448,-172 -608,-227 -102,-34 -204,-69 -305,-106 -595,-198 -925,-312 -1174,-418 -252,-106 -419,-206 -686,-381 -335,-217 -630,-466 -947,-817 -294,-326 -677,-821 -1077,-1427 -364,-552 -597,-890 -754,-1093 -122,-158 -168,-250 -254,-294 -161,32 -383,156 -730,384 -116,76 -225,155 -312,228 -158,135 -337,359 -403,504 0,0 0,0 0,1 -30,61 -85,142 -151,229 -252,332 -575,592 -825,899 -385,471 -337,960 -550,1487 -103,214 -166,478 -215,730 -145,743 -112,1680 -2,2148 l 39,132 c 27,127 36,270 17,376 -28,320 212,741 173,1064 -25,201 -311,352 -413,526 -260,432 -387,466 85,461 532,-11 1300,-72 1688,-27 506,58 605,281 831,341 337,93 610,-100 979,98 101,56 216,90 331,109 317,53 679,5 958,-64 z m 8288,-2111 c 538,-159 1043,-347 1457,-452 476,-119 1033,-170 1581,-164 1135,15 2050,428 3157,584 970,135 1887,-865 2956,-1669 641,-484 1407,-818 2077,-1014 566,-166 1102,-444 1696,-682 187,-77 195,-69 222,-267 119,-876 473,-1802 966,-2538 865,-1298 2055,-2493 2751,-3702 193,-340 167,-718 106,-1180 -32,-238 -50,-804 -180,-910 -37,-31 -810,877 -1079,1269 -122,175 -252,343 -387,508 -330,401 -648,707 -849,810 -87,58 -204,95 -582,135 -318,35 -2696,226 -3397,226 -901,0 -595,-245 -1342,194 l -402,235 c -690,416 -1451,940 -1849,1339 l -184,168 c -209,192 -263,319 -513,238 l -420,-127 c -370,-99 -430,43 -840,85 -3,0 -5,1 -8,1 -1344,199 -2944,359 -3749,1616 -131,204 -196,307 -497,257 -277,-45 -858,-267 -1692,-582 -341,-127 -923,-209 -1308,-294 -2481,-547 -4438,-1628 -5475,-4140 -20,1114 -249,2374 527,3295 1162,1377 2736,2353 3701,3919 497,807 730,1646 995,3003 29,146 58,289 87,434 48,228 56,402 65,474 5,32 3,40 31,26 771,-365 1498,-833 2378,-1095 z m 12670,-661 c 187,-74 664,-535 873,-749 397,-386 648,-619 870,-791 365,-278 804,-471 1252,-651 611,-246 1534,-577 2333,-823 233,-74 590,-206 871,-357 441,-233 455,-392 555,-855 93,-412 162,-669 392,-1132 399,-809 1198,-1968 1767,-2705 318,-412 646,-809 1043,-1272 158,-185 460,-539 553,-678 -74,-76 -252,-223 -458,-347 -95,-55 -394,-293 -492,-374 -416,-343 -791,-729 -1003,-1019 -3,-1 -3,-3 -3,-5 -135,-216 -230,-407 -288,-592 -58,-187 -79,-368 -66,-562 8,-44 13,-88 21,-131 -413,330 -765,602 -1188,959 -735,620 -1617,1468 -1992,1970 -357,481 -461,1096 -775,1609 -1027,1684 -3194,3382 -3384,5324 -29,286 10,527 -281,720 -182,119 -489,236 -1023,407 h -2 v 3 c -955,286 -1891,707 -2650,1278 -79,58 -383,214 -164,212 v 2 c 883,0 1511,725 2555,686 250,-6 456,-19 684,-127 z M 9007,28907 c -871,-910 -1883,-1688 -2722,-2626 -265,-296 -420,-525 -529,-769 -317,-543 -260,-1876 -214,-2948 14,-330 28,-635 28,-888 -143,-302 -286,-605 -429,-908 -694,671 -1406,1337 -1852,2209 -204,399 -328,833 -458,1260 -60,198 710,178 909,269 207,94 386,241 559,447 257,307 681,917 954,1330 485,735 857,1227 1226,1597 366,368 729,614 1197,863 125,61 340,145 499,206 564,217 1352,519 1362,521 9,-18 -466,-497 -530,-563 z m 5683,-1828 c 755,-1260 2688,-1556 3953,-1728 h -1 c 74,-10 143,-21 199,-31 -225,-131 -589,-298 -926,-434 -439,-177 -854,-288 -1325,-345 -733,-89 -1490,-88 -2188,-306 -319,-100 -423,-232 -604,-484 -1,0 -1,0 -1,0 -315,-448 -604,-837 -897,-1210 -583,-743 -1281,-1438 -1826,-2206 -528,-744 -856,-1612 -1387,-2347 -257,-340 -790,-816 -1073,-951 -474,-228 -243,-418 3,-795 485,-746 1082,-1590 1828,-2112 -41,-163 -439,-1039 -767,-1831 -199,-478 -689,-1620 -609,-2162 64,-388 268,-757 512,-1114 170,-247 103,-202 -83,-110 -628,310 -1082,731 -1458,1229 -1245,1642 -2071,3637 -3181,5386 -124,185 -247,367 -376,546 -330,457 -701,882 -1033,1338 -128,175 -113,151 15,310 246,305 494,601 733,903 548,694 982,1429 1368,2224 431,888 809,1801 1310,2656 407,695 889,1183 1525,1614 951,644 2035,946 3142,1191 753,165 1439,380 2158,657 170,61 693,286 790,286 79,0 169,-124 199,-174 z m 7662,-3442 c 117,-74 251,-103 373,-180 l 1,1 c 1727,-1016 4546,-2373 6022,-2783 516,-142 794,-232 961,-374 164,-140 230,-344 333,-712 50,-166 74,-313 87,-531 29,-460 3,-1433 16,-1992 24,-1042 90,-2023 461,-2995 124,-324 283,-677 494,-1101 64,-122 381,-728 326,-832 -29,-54 -167,-84 -315,-101 -1180,-140 -2813,-565 -3707,-1329 -21,-17 -39,-33 -58,-49 16,401 85,797 148,1194 80,506 119,1014 125,1526 5,344 -24,560 -120,1040 -31,164 -58,311 -84,458 -61,324 -119,647 -154,809 -29,202 61,500 -53,650 -158,261 -169,1103 -259,1408 -137,459 -378,890 -727,1178 -403,331 -970,545 -1526,835 -927,483 -1906,1012 -2644,1434 -1410,806 -2091,1072 -3662,499 -575,-210 -934,-328 -1341,-400 -375,-66 -897,-107 -1640,-124 -1171,-54 -1811,-108 -2141,-294 -355,-201 -359,-525 -248,-1113 31,-210 78,-692 78,-835 v -367 c -48,-51 -95,-101 -143,-151 -166,-175 -333,-351 -491,-534 -475,-551 -771,-1175 -1089,-1824 -177,-361 -357,-740 -492,-1037 -90,-197 -211,-422 -261,-635 -142,75 -437,298 -633,503 -326,342 -727,846 -1047,1337 l -303,467 c 445,297 677,390 1062,852 334,401 598,848 851,1302 278,498 543,1005 877,1467 456,633 1027,1191 1525,1794 330,398 707,875 782,986 213,315 452,666 709,795 462,231 1317,270 2047,335 761,67 1392,259 2080,601 373,186 728,383 1099,549 223,99 533,27 692,-146 749,-816 1436,-1229 1989,-1581 z m 3883,-559 c 526,-34 1569,-49 1881,-210 122,-62 262,-185 452,-379 686,-705 1241,-1523 1905,-2248 447,-488 937,-893 1461,-1299 513,-399 1053,-777 1465,-984 143,-72 289,-144 432,-217 0,-263 10,-398 -69,-684 -53,-184 -138,-421 -270,-777 v 0 c -185,-525 -272,-982 -249,-1532 43,-1024 413,-2024 670,-3013 98,-384 177,-738 156,-860 -8,-40 -27,-66 -90,-98 -87,-43 -243,-96 -519,-187 -788,-276 -1156,-471 -1886,-959 -373,-240 -704,-480 -1011,-729 -307,-248 -590,-506 -870,-785 -164,-157 -619,-511 -725,-573 -183,-100 -794,-507 -1029,-663 -458,-301 -760,-485 -1008,-599 -371,-168 -698,-207 -1095,-173 -380,32 -823,127 -1117,274 l -144,50 c 100,121 199,242 299,363 v 0 l 201,228 c 336,366 807,810 1067,944 174,91 381,152 582,177 122,16 429,144 466,180 32,35 45,274 48,517 2,161 -22,573 -22,914 0,234 43,435 80,499 50,84 423,316 661,445 267,144 595,252 961,392 719,277 1442,488 2198,617 249,43 508,106 590,227 164,241 -286,1006 -394,1232 -775,1639 -825,2333 -810,4275 3,286 -13,1633 -53,1788 -92,388 -254,1114 -444,1282 -40,33 -90,55 -146,78 -172,73 -489,178 -833,255 -225,67 -471,140 -672,204 -476,151 -730,284 -1169,492 -825,389 -2051,991 -2674,1332 -337,183 -537,279 -616,328 370,95 1906,-97 2340,-124 z m -5659,-1502 c 1563,-628 2931,-1715 4477,-2405 492,-195 795,-349 1014,-553 218,-203 358,-460 525,-859 77,-169 132,-335 164,-477 37,-154 56,-322 69,-556 8,-194 63,-504 103,-678 -5,11 -13,22 -19,34 -386,641 -732,1089 -1151,1439 -419,349 -907,598 -1574,839 -1590,580 -3134,841 -4917,1008 v 0 c -497,54 -994,107 -1491,160 -1004,-302 -1735,-675 -2569,-1392 -156,-133 -732,-477 -962,-600 -707,-354 -1133,-641 -1505,-1245 -66,-105 -170,-348 -223,-479 -193,-477 -423,-1193 -550,-1789 -122,-555 -144,-1323 -107,-1850 40,-556 281,-1283 615,-1684 -255,772 -307,1262 -307,2012 0,1049 30,1144 208,1883 v 0 c 144,513 249,862 353,1137 177,465 455,941 834,1250 206,168 478,330 881,526 151,77 299,162 448,243 -17,-82 -84,-183 -150,-280 -26,-39 -51,-77 -74,-114 -36,-36 -74,-78 -112,-125 -271,-328 -536,-816 -765,-1316 v 0 c -121,-256 -189,-405 -239,-619 -163,-683 -253,-1675 -213,-2358 23,-402 103,-847 261,-1642 270,-1355 447,-1840 1364,-2761 542,-543 1069,-922 1730,-1281 358,-199 854,-467 1221,-654 255,-130 517,-264 679,-326 41,-24 79,-46 110,-66 -277,-74 -659,-317 -868,-527 -234,-235 -374,-346 -585,-335 -1028,147 -2334,1137 -3503,1238 -704,61 -1358,70 -2144,-90 h -1 c -284,-62 -431,-88 -491,-54 -46,26 -50,129 -50,325 0,352 -68,698 -220,1075 -150,372 -384,773 -716,1241 0,0 0,0 -1,0 -402,560 -609,884 -672,1184 -128,611 319,1525 546,2084 257,631 544,1255 808,1869 188,439 376,866 544,1241 174,389 328,720 441,945 -1,0 -1,1 -1,1 265,507 523,1041 895,1479 89,105 186,208 303,325 v 0 c 139,130 278,260 417,391 0,255 -1,508 -16,765 -10,171 -47,576 -91,736 -39,181 -58,315 -61,413 -3,105 7,128 30,175 43,97 159,168 412,225 276,62 700,101 1340,127 938,40 1474,73 1902,140 820,127 1576,497 2381,682 422,99 865,77 1273,-77 z m 11620,-1069 c 277,-268 627,-573 950,-849 994,-850 2304,-1892 2748,-2145 61,-43 172,-150 178,-202 0,-7 2,-15 2,-23 v 0 c 8,-21 3,-68 0,-100 -13,-157 -68,-422 -158,-702 -172,-611 -278,-1076 -342,-1577 -129,-1015 -111,-2086 -55,-3107 47,-881 169,-1556 450,-2704 58,-227 68,-197 -202,-261 -1386,-325 -2923,-437 -4336,-1155 -704,-358 -1265,-820 -1796,-1449 -260,-287 -487,-508 -694,-670 -203,-159 -386,-260 -561,-310 -227,-56 -687,-118 -1015,-157 -217,-24 -588,-71 -786,-104 108,89 278,216 521,392 v 0 c 780,569 1294,967 1685,1313 395,347 659,641 940,1001 v 1 c 166,219 381,433 698,690 320,260 749,563 1339,958 714,470 1082,663 1831,944 127,49 555,219 624,276 101,84 135,229 106,495 -69,627 -257,1253 -423,1877 -88,315 -167,629 -223,943 -66,358 -79,593 -92,945 h 2 c 0,786 64,867 389,1798 58,160 103,319 138,481 172,843 2,844 -595,1145 -572,285 -1829,1248 -2334,1740 -230,226 -243,251 -198,569 45,348 111,696 161,1043 82,-82 198,-223 288,-323 244,-275 492,-528 760,-773 z M 19226,19061 c 505,-43 1334,-127 1680,-185 571,-95 1166,-222 1723,-367 1430,-374 2666,-862 3008,-1288 162,-201 186,-233 159,-677 v 0 c 0,-163 -4,-316 -21,-469 -29,-265 -78,-414 -148,-433 -60,0 -253,2 -420,50 -149,40 -223,56 -397,149 -152,81 -334,199 -583,370 0,0 -1,0 -2,1 -309,196 -832,526 -1062,639 -177,82 -293,130 -484,161 -184,30 -437,44 -887,57 -569,31 -829,53 -1140,124 -715,165 -1387,448 -2114,579 -1113,200 -2362,219 -3392,-274 40,105 126,193 216,285 471,481 1735,1509 2512,1385 432,-52 923,-107 1352,-107 z m 564,-1900 v 0 c 726,-228 1333,-348 2103,-348 912,0 1165,-165 1986,-726 389,-263 659,-426 893,-526 247,-105 487,-159 874,-226 v 0 c 1,0 1,0 2,0 v 0 c 200,-41 412,-208 412,-402 0,-146 116,-383 192,-536 l 6,-10 c 163,-225 244,-367 247,-529 2,-168 -74,-372 -228,-719 -1,-1 -1,-2 -1,-4 h -1 c -63,-155 -154,-372 -199,-510 -25,53 -55,127 -80,214 -29,89 -145,324 -200,435 -196,391 -670,1261 -855,1479 479,-65 863,-125 1017,-968 112,604 -51,902 -525,1137 -364,181 -935,320 -1678,506 v 0 c -190,51 -381,102 -571,153 -526,144 -1123,312 -1506,428 -105,82 -902,364 -967,347 -1036,100 -2546,51 -3621,209 -91,13 -350,27 -473,29 -279,5 -588,42 -828,35 -635,-18 -1380,-241 -1434,-1063 120,538 847,749 1303,791 24,-429 35,-856 129,-1280 v 0 c 27,-138 57,-321 71,-443 -37,-3 -77,-6 -117,-9 -417,-30 -862,-62 -1107,-477 -58,-73 -96,-144 -117,-263 -19,-110 -22,-262 -8,-504 v 0 0 0 -4 c 8,-332 13,-753 170,-1021 104,-178 251,-106 94,-184 -180,-91 -278,-185 -306,-323 -88,-429 395,-916 645,-1162 460,-452 1166,-856 1837,-771 40,6 80,12 121,17 74,-279 138,-562 241,-833 163,-430 400,-852 653,-1141 574,-657 1237,-866 2019,-671 468,116 740,212 938,285 488,181 528,230 1927,133 47,-3 96,-7 146,-10 390,-41 740,-20 1080,61 340,81 669,222 1018,424 119,73 233,156 348,233 51,377 72,665 193,1056 82,262 203,580 413,1128 h 1 c 84,240 226,644 215,824 -26,470 -39,725 -7,933 31,203 108,370 263,667 v 2 c 177,367 264,593 264,805 0,93 96,431 -342,823 -84,186 -28,353 -130,488 -115,153 -213,257 -233,273 -181,156 -162,138 -109,289 h 1 c 86,370 104,639 124,1051 56,-76 111,-151 167,-227 284,-374 509,-780 676,-1207 344,-875 450,-1844 341,-2837 -13,-139 -34,-278 -58,-417 -235,-1352 -251,-2172 -288,-3548 -371,-86 -737,-164 -1072,-365 -79,-48 -269,-208 -350,-280 -329,-289 -727,-695 -1014,-1060 -87,-108 -169,-207 -264,-312 -247,-275 -540,-558 -859,-841 l -113,-113 c -219,183 -338,264 -727,313 -982,124 -1999,-109 -2963,160 -1,0 -1,0 -1,0 -94,25 -219,70 -366,129 -151,61 -323,136 -509,221 -958,439 -2275,1147 -2707,1487 -78,53 -246,195 -324,262 -570,483 -1175,1130 -1392,1638 -83,194 -164,509 -221,749 -367,1535 -572,2965 -196,4519 27,113 88,253 144,380 204,456 549,1103 737,1334 414,523 1031,733 1743,843 1136,176 2242,-90 3313,-420 z m -1826,-955 c 319,-19 743,-40 1032,-49 -772,-81 -1409,-522 -2003,-1119 -206,-207 -322,-316 -412,-372 -81,-50 -151,-55 -257,-55 -110,0 -155,1 -203,23 -25,282 -58,535 -81,937 -8,262 -15,524 -23,786 672,-61 1280,-114 1947,-151 z m 2787,-223 c -321,-32 -712,-140 -1052,-247 -1092,-344 -2486,-970 -3043,-1433 v 0 c -223,-182 -441,-443 -548,-724 -103,-275 -90,-573 130,-811 107,-116 214,-233 322,-349 -67,144 -133,287 -199,431 v 0 c -276,605 151,1120 695,1436 150,87 255,156 327,190 -219,-528 -338,-977 -412,-1569 -39,-319 -59,-532 -63,-775 -9,-650 86,-1296 89,-1946 -210,-73 -827,113 -1129,267 -346,178 -713,561 -921,865 -151,220 -235,412 -191,496 45,88 251,224 416,349 59,44 135,128 173,220 37,87 39,180 -38,252 -58,53 -125,9 -188,-45 -71,-61 -137,-136 -179,-99 -60,54 -90,153 -107,261 -33,214 -37,447 -47,665 -7,152 -7,287 10,353 12,50 30,101 53,156 70,151 157,245 313,303 170,63 420,86 808,101 184,6 645,-46 760,48 167,167 333,334 499,501 351,338 655,579 980,740 537,267 1865,554 2542,364 z M 8214,9337 c 394,-370 872,-657 1508,-817 155,-58 227,-78 312,-157 96,-89 140,-181 285,-397 168,-246 284,-459 363,-680 114,-313 -14,-1308 444,-1325 429,-16 836,115 1260,115 64,0 49,-9 55,-38 95,-477 361,-887 629,-1278 -232,-36 -495,-35 -715,-118 -159,-62 -730,350 -850,414 -224,119 -455,224 -641,254 -404,66 -908,25 -1317,25 -417,-210 -833,-429 -1262,-613 -524,-224 -775,-236 -1596,-259 -197,-6 -170,-23 -113,140 112,321 246,604 293,947 23,172 30,380 30,740 v 0 c 0,558 -2,789 -163,1242 -120,322 -260,616 -476,989 -215,372 -505,822 -928,1458 0,0 0,0 0,0 -420,619 -662,993 -832,1309 -169,312 -267,567 -397,947 0,0 -1,0 -1,0 -90,260 -135,408 -157,583 -22,175 -22,385 -22,767 0,406 25,745 84,1063 140,744 310,916 348,978 99,-134 277,-394 301,-433 1144,-1860 1994,-4382 3558,-5856 z m 13840,6238 c 125,-40 250,-81 375,-121 518,-162 1032,-267 1538,-395 273,-72 483,-137 542,-161 28,-21 226,-362 272,-441 326,-563 995,-1799 1019,-1952 71,-227 121,-389 149,-495 -150,169 -426,545 -453,641 -26,96 -69,165 -135,257 -506,703 -1418,1424 -2275,1616 1020,-534 1339,-914 1403,-1008 -227,173 -473,320 -822,483 -349,164 -798,343 -1431,581 -781,277 -1513,598 -2267,925 45,16 91,31 136,46 199,85 562,132 768,153 65,13 131,26 196,39 386,70 589,-62 985,-168 z m 2903,-2554 c 145,-163 257,-328 291,-416 h 1 c 49,-122 171,-300 251,-413 -25,23 -51,47 -77,71 1,0 1,1 1,1 v 0 c -1,0 -1,0 -1,0 -84,85 -372,386 -372,422 h -1 c 0,106 -31,220 -93,335 z m 884,-1300 c 100,-148 127,-159 -2,-274 6,88 2,185 2,274 z m -53,-602 c 41,10 70,26 112,53 -39,-151 -128,-421 -284,-866 -53,-149 -182,-631 -219,-773 -60,-235 -101,-431 -101,-544 -24,-177 -48,-277 -133,-363 -288,-289 -1021,-534 -1399,-597 -269,-45 -551,-51 -886,-26 -396,61 -788,44 -1181,19 356,240 659,526 982,803 286,245 267,208 579,295 343,97 855,302 961,354 102,51 198,128 294,209 207,173 1148,1059 1275,1436 z m -5507,3984 c 395,-185 1072,-449 1531,-636 l 542,-210 c -42,-6 -85,-11 -127,-16 -359,-27 -666,-81 -1194,-234 -528,-153 -1272,-404 -2510,-827 0,0 0,0 0,0 -271,-95 -469,-191 -603,-291 -144,-108 -219,-222 -236,-346 -3,-8 -5,-16 -7,-24 -68,103 -102,174 -99,358 4,177 46,418 121,800 71,370 207,1035 460,1163 54,26 232,98 315,132 399,162 1034,415 1119,439 230,-93 473,-183 688,-308 z m -1944,-3212 c -42,-587 -132,-1391 70,-1848 157,-357 643,-669 1044,-718 370,-46 838,-30 1210,3 280,24 531,126 806,176 248,44 500,47 746,93 534,99 851,549 1048,1015 208,490 314,1087 314,1678 v 0 c 0,53 -1,106 -2,157 -11,450 -127,1344 -528,1373 241,-280 285,-1259 242,-1845 -13,-177 -45,-333 -96,-565 -181,-699 -378,-1143 -662,-1390 -358,-311 -918,-319 -1487,-171 -831,216 -1680,764 -1943,1182 -102,162 -146,307 -134,488 h -1 c 2,9 2,19 3,29 410,-693 1865,-2040 2836,-1463 136,81 273,196 415,345 182,193 352,409 488,637 208,350 287,671 233,1026 -65,420 -320,879 -775,1484 -144,193 -221,300 -249,359 74,25 170,35 256,39 480,27 1111,-86 1538,-289 249,-119 781,-442 962,-699 72,-103 115,-221 152,-396 16,-91 47,-160 128,-257 215,-255 716,-534 583,-936 -160,-481 -930,-1289 -1373,-1608 -191,-137 -390,-234 -661,-338 -263,-96 -396,-141 -412,-129 -5,4 66,82 184,255 75,111 189,342 259,487 100,210 209,454 311,698 47,110 752,1769 196,2390 53,-741 -174,-1644 -454,-2326 -106,-258 -224,-504 -341,-718 -264,-487 -645,-946 -1042,-1335 -503,-492 -1067,-823 -1795,-1075 -648,-225 -1302,-324 -1873,95 -305,225 -582,548 -789,937 0,-1 0,-1 0,-1 -142,273 -239,500 -313,771 -218,799 -276,1711 -266,2541 9,788 117,1538 365,2133 -79,-221 -143,-448 -193,-681 0,0 0,1 0,1 -196,-912 -249,-2274 168,-3193 117,-353 359,-753 546,-1029 -164,373 -285,701 -378,1040 -191,696 -339,1574 -246,2286 148,-369 546,-602 910,-708 z m 3803,1250 c 299,-419 556,-898 551,-1341 -4,-296 -138,-530 -303,-764 -222,-312 -525,-629 -718,-744 -145,-85 -290,-127 -449,-121 -234,9 -529,141 -770,304 -435,293 -979,816 -1225,1160 219,-159 453,-212 783,-264 240,-46 453,-74 642,-85 258,-15 517,-2 760,89 265,98 565,289 634,553 53,202 -12,461 -194,745 -70,126 -127,204 -208,267 -157,122 -515,231 -734,276 -378,77 -845,99 -981,8 v 0 c -44,-29 -84,-63 -120,-102 v 198 c 246,82 492,164 738,246 273,87 547,174 820,261 10,2 20,4 30,6 230,99 610,-504 744,-692 z m -3483,-1337 c -55,-605 -22,-1482 55,-1778 12,-43 114,-152 115,-157 -9,8 -18,17 -27,25 v 0 c -51,34 -146,166 -187,239 -18,37 -32,98 -44,178 -58,395 -33,1037 25,1545 28,250 48,409 109,662 15,61 31,119 48,173 75,227 110,288 307,377 -74,-194 -161,-375 -234,-558 -122,-304 -134,-346 -167,-706 z m 896,1041 c -14,-226 -20,-360 -10,-457 12,-109 43,-172 104,-249 93,-124 223,-187 394,-198 298,-20 839,129 1051,358 208,224 109,550 152,599 5,5 15,-14 50,-34 55,-37 47,-192 23,-308 -51,-268 -113,-426 -230,-538 -217,-207 -920,-416 -1210,-368 -280,47 -565,190 -750,375 -41,42 -82,84 -124,125 56,154 118,306 169,461 78,240 209,661 403,661 24,0 -22,-338 -22,-427 z m 1301,137 c 120,-20 122,-21 122,-217 h -1 1 c 0,-91 -25,-231 -84,-290 0,0 0,0 0,0 -39,-39 -113,-73 -170,-97 -216,-90 -540,-164 -718,-146 -39,0 -78,1 -117,1 0,150 -12,470 28,580 21,58 61,102 129,159 213,178 553,65 810,10 z m -2301,-92 c -81,-237 -124,-480 -177,-725 -159,103 -323,189 -427,328 -15,20 -36,34 1,73 66,70 467,298 603,324 z m 3002,-286 c -2,-93 -62,-323 -112,-413 29,163 26,268 110,435 1,-7 1,-15 2,-22 z m -190,-595 c -22,-162 45,-151 186,-10 v 0 0 c 93,93 146,220 193,344 0,-1 1,-2 1,-4 59,-166 71,-294 35,-398 -36,-103 -124,-190 -266,-273 l -104,-48 c 0,0 0,0 0,0 -251,-96 -599,-140 -835,-108 338,121 643,245 790,497 z m -1512,-1953 c 297,-207 680,-347 1023,-437 -200,-31 -495,-56 -774,-56 -496,0 -785,36 -943,170 -220,189 -194,645 -194,1040 39,-43 78,-86 117,-129 130,-109 263,-220 402,-324 120,-90 246,-177 369,-264 z m 8311,-3475 c -778,-618 -1742,-1178 -2395,-1933 -221,-255 -446,-574 -751,-1039 -432,-657 -773,-1124 -1093,-1485 -459,-517 -769,-708 -1272,-1057 -90,53 -181,106 -272,159 v 0 c -629,399 -1326,709 -2118,1010 v 0 c -567,238 -1057,418 -1582,577 -523,160 -1077,299 -1777,458 0,0 0,0 -1,0 -1048,224 -1749,414 -2258,634 -501,216 -816,460 -1098,795 -130,143 -250,298 -358,457 -269,393 -442,772 -442,948 h 1 c 0,2 6,-2 33,2 73,9 209,2 439,-24 469,-39 834,-98 1259,-228 721,-221 1997,-1040 2767,-1050 616,-8 850,658 1592,875 270,79 547,71 851,-17 162,-41 325,-62 575,-72 756,-30 1516,0 2273,16 117,-50 234,-101 352,-151 128,-70 257,-139 385,-208 l 273,244 c 225,151 417,335 610,519 59,55 117,111 178,168 171,-57 341,-114 511,-171 671,-229 1190,-309 1733,-197 476,98 963,345 1585,770 z"
     id="path20"
     style="display:inline" /></g></svg>
